<svg xmlns="http://www.w3.org/2000/svg" width="53" height="52.792" viewBox="0 0 53 52.792">
  <g id="web-development" transform="translate(0 -1)">
    <path id="Path_2616" data-name="Path 2616" d="M48.341,1H4.658A4.663,4.663,0,0,0,0,5.658V49.134a4.663,4.663,0,0,0,4.658,4.658H48.341A4.663,4.663,0,0,0,53,49.134V5.658A4.663,4.663,0,0,0,48.341,1ZM4.658,4.105H48.341a1.554,1.554,0,0,1,1.553,1.553v7.764H3.105V5.658A1.554,1.554,0,0,1,4.658,4.105ZM48.341,50.687H4.658a1.554,1.554,0,0,1-1.553-1.553V16.527H49.894V49.134A1.554,1.554,0,0,1,48.341,50.687Z" fill="#fff"/>
    <path id="Path_2617" data-name="Path 2617" d="M207.477,196.122a1.553,1.553,0,0,0-2.039.815l-9.316,21.738a1.553,1.553,0,1,0,2.854,1.223l9.316-21.738a1.553,1.553,0,0,0-.815-2.039Z" transform="translate(-175.708 -174.811)" fill="#fff"/>
    <path id="Path_2618" data-name="Path 2618" d="M86.532,241.582a1.553,1.553,0,0,0-2.182-.242l-7.764,6.211a1.553,1.553,0,0,0,0,2.425l7.764,6.211a1.553,1.553,0,1,0,1.94-2.425l-6.248-5,6.248-5A1.553,1.553,0,0,0,86.532,241.582Z" transform="translate(-68.136 -215.156)" fill="#fff"/>
    <path id="Path_2619" data-name="Path 2619" d="M341.286,247.55l-7.764-6.211a1.553,1.553,0,1,0-1.94,2.425l6.248,5-6.248,5a1.553,1.553,0,1,0,1.94,2.425l7.764-6.211A1.553,1.553,0,0,0,341.286,247.55Z" transform="translate(-296.736 -215.155)" fill="#fff"/>
    <circle id="Ellipse_24" data-name="Ellipse 24" cx="1.5" cy="1.5" r="1.5" transform="translate(6.5 7.396)" fill="#fff"/>
    <circle id="Ellipse_25" data-name="Ellipse 25" cx="1.5" cy="1.5" r="1.5" transform="translate(12.5 7.396)" fill="#fff"/>
    <circle id="Ellipse_26" data-name="Ellipse 26" cx="1.5" cy="1.5" r="1.5" transform="translate(18.5 7.396)" fill="#fff"/>
    <path id="Path_2620" data-name="Path 2620" d="M332.553,64.105h9.316a1.553,1.553,0,1,0,0-3.105h-9.316a1.553,1.553,0,0,0,0,3.105Z" transform="translate(-296.737 -53.789)" fill="#fff"/>
  </g>
</svg>
