<svg id="hamburger" xmlns="http://www.w3.org/2000/svg" width="29" height="29" viewBox="0 0 29 29">
  <g id="Layer_2" data-name="Layer 2">
    <g id="invisible_box" data-name="invisible box">
      <rect id="Rectangle_502" data-name="Rectangle 502" width="29" height="29" fill="none"/>
    </g>
    <g id="icons_Q2" data-name="icons Q2">
      <path id="Path_35" data-name="Path 35" d="M25.375,7.25a1.208,1.208,0,0,1-1.208,1.208H4.833A1.208,1.208,0,0,1,3.625,7.25h0A1.208,1.208,0,0,1,4.833,6.042H24.167A1.208,1.208,0,0,1,25.375,7.25Z" fill="#1a6592"/>
      <path id="Path_36" data-name="Path 36" d="M20.542,14.5a1.208,1.208,0,0,1-1.208,1.208H4.833A1.208,1.208,0,0,1,3.625,14.5h0a1.208,1.208,0,0,1,1.208-1.208h14.5A1.208,1.208,0,0,1,20.542,14.5Z" fill="#1a6592"/>
      <path id="Path_37" data-name="Path 37" d="M15.708,21.75A1.208,1.208,0,0,1,14.5,22.958H4.833A1.208,1.208,0,0,1,3.625,21.75h0a1.208,1.208,0,0,1,1.208-1.208H14.5A1.208,1.208,0,0,1,15.708,21.75Z" fill="#1a6592"/>
    </g>
  </g>
</svg>
