<svg id="Layer_2" data-name="Layer 2" xmlns="http://www.w3.org/2000/svg" width="22" height="22" viewBox="0 0 22 22">
  <g id="invisible_box" data-name="invisible box">
    <rect id="Rectangle_476" data-name="Rectangle 476" width="22" height="22" fill="none"/>
  </g>
  <g id="icons_Q2" data-name="icons Q2" transform="translate(1.375 0.917)">
    <g id="Group_39" data-name="Group 39">
      <path id="Path_59" data-name="Path 59" d="M20.6,14.178a2.063,2.063,0,0,1-.55-1.33V10.877A6.565,6.565,0,0,0,13.169,4a6.517,6.517,0,0,0-6.877,6.877v2.292a1.192,1.192,0,0,1-.321.779l-1.7,1.7A.917.917,0,0,0,4,16.287v3.3a.917.917,0,0,0,.917.917h5.089a3.209,3.209,0,0,0,6.327,0h5.089a.917.917,0,0,0,.917-.917v-3.3a.917.917,0,0,0-.275-.642ZM20.5,18.671H5.834V16.7l1.421-1.467a2.934,2.934,0,0,0,.871-2.063V10.877c0-2.43,1.33-5.043,5.043-5.043a4.737,4.737,0,0,1,5.043,5.043v1.971a3.943,3.943,0,0,0,1.054,2.613L20.5,16.7Z" transform="translate(-3.541 -3.083)" fill="#1a6592"/>
      <path id="Path_60" data-name="Path 60" d="M4.834,9.827a7.84,7.84,0,0,1,2.98-6.143.9.9,0,1,0-1.1-1.421A9.444,9.444,0,0,0,3,9.827a.917.917,0,0,0,1.834,0Z" transform="translate(-3 -2.034)" fill="#1a6592"/>
      <path id="Path_61" data-name="Path 61" d="M35.167,2.183a.917.917,0,0,0-1.1,1.467,7.748,7.748,0,0,1,2.98,6.143.917.917,0,1,0,1.834,0,9.582,9.582,0,0,0-3.713-7.61Z" transform="translate(-19.625 -2)" fill="#1a6592"/>
    </g>
  </g>
</svg>
