<svg id="Group_10" data-name="Group 10" xmlns="http://www.w3.org/2000/svg" width="256.647" height="221.473" viewBox="0 0 256.647 221.473">
  <g id="Group_8" data-name="Group 8" transform="translate(55.159)">
    <g id="Group_7" data-name="Group 7">
      <path id="Path_93" data-name="Path 93" d="M108.485,104.53H65.046a3.306,3.306,0,1,0,0,6.613h43.439a3.306,3.306,0,0,0,0-6.613Z" transform="translate(-40.73 24.429)" fill="#fff"/>
      <path id="Path_94" data-name="Path 94" d="M120.542,20.525a23.824,23.824,0,0,0-15.569-9.1L101.21,35.379l24.119,2.554a23.877,23.877,0,0,0-4.774-17.4Z" transform="translate(-31.506 2.669)" fill="#fff"/>
      <path id="Path_95" data-name="Path 95" d="M118.176,57.583a24.844,24.844,0,0,0,9.561-16.791l-25.094-2.652,3.911-24.921a24.883,24.883,0,1,0,11.609,44.364Z" transform="translate(-36.9 3.029)" fill="#fff"/>
      <path id="Path_96" data-name="Path 96" d="M65.056,68.633h84.435a3.306,3.306,0,0,0,0-6.613H65.056a3.306,3.306,0,1,0,0,6.613Z" transform="translate(-40.728 14.494)" fill="#fff"/>
      <path id="Path_97" data-name="Path 97" d="M108.485,90.36H65.046a3.306,3.306,0,1,0,0,6.613h43.439a3.306,3.306,0,0,0,0-6.613Z" transform="translate(-40.73 21.117)" fill="#fff"/>
      <path id="Path_98" data-name="Path 98" d="M177.79,96.759V19.011A19.028,19.028,0,0,0,158.778,0H63.721A19.028,19.028,0,0,0,44.71,19.011V134.5A19.028,19.028,0,0,0,63.721,153.51h73.7A34.851,34.851,0,0,0,177.79,96.747ZM63.721,147.909a13.431,13.431,0,0,1-13.41-13.41V19.011A13.431,13.431,0,0,1,63.721,5.6h95.057a13.431,13.431,0,0,1,13.41,13.41v74.22a34.853,34.853,0,0,0-41.341,54.69H63.721Z" transform="translate(-44.71)" fill="#fff"/>
      <path id="Path_99" data-name="Path 99" d="M119.08,79.5a3.307,3.307,0,0,0-3.306-3.306H65.056a3.306,3.306,0,1,0,0,6.613h50.718A3.307,3.307,0,0,0,119.08,79.5Z" transform="translate(-40.728 17.806)" fill="#fff"/>
    </g>
    <path id="Path_100" data-name="Path 100" d="M127.268,121.511c-.358-.037-.716-.074-1.073-.1a21.48,21.48,0,0,1-7.02-1.727c-.975-.419-1.9-.962-2.85-1.431a1.049,1.049,0,0,1-.543-.9,1.827,1.827,0,0,1,.407-1.345c.16-.21.345-.395.518-.592a.188.188,0,0,1,.284-.037,23.556,23.556,0,0,0,7.328,2.665,23.83,23.83,0,0,0,7.489.173,21.607,21.607,0,0,0,9.82-4.244,17.906,17.906,0,0,0,4.1-4.626c.025-.049.062-.1.1-.173a6.512,6.512,0,0,0-1.851-.814,3.716,3.716,0,0,0-1.875.062,1.168,1.168,0,0,0-.444.259c-.444.37-.888.74-1.308,1.135a17.375,17.375,0,0,1-21.294,2.134c-.025-.025-.062-.049-.1-.086.111-.185.234-.358.345-.53q3.368-5.293,6.748-10.585a.273.273,0,0,1,.432-.086,2.754,2.754,0,0,1,1.147,3.319,3.217,3.217,0,0,1-.3.53c-1.258,2-2.529,4-3.787,6.008a2.272,2.272,0,0,1-.123.2,12.51,12.51,0,0,0,3.948.962,13.659,13.659,0,0,0,5.663-.777c-.173-.432-.345-.839-.506-1.258-.629-1.653-1.308-3.282-1.789-5a17.394,17.394,0,0,1-.753-5.687,16.115,16.115,0,0,1,.58-3.911,23.469,23.469,0,0,1,7.97-11.461c.888-.716,1.826-1.394,2.764-2.06a1.913,1.913,0,0,1,2.7.518c.234.345.456.679.7,1.049-.21.111-.407.21-.592.308a22.49,22.49,0,0,0-5.712,4.145,17.131,17.131,0,0,0-4.367,7.328,19.075,19.075,0,0,0-.728,3.7,16.623,16.623,0,0,0,.062,3.5,14.78,14.78,0,0,0,1.949,5.774c.284.481.6.95.95,1.468.345-.345.654-.654.938-.962.481-.518.938-1.049,1.443-1.554a.637.637,0,0,0,.111-.876,13.35,13.35,0,0,1-1.332-4.9,14.184,14.184,0,0,1,.543-4.984,13.573,13.573,0,0,1,2.2-4.207,16.651,16.651,0,0,1,6.563-5.33c.2-.086.271-.062.382.123q3.479,5.589,6.97,11.165c.037.062.062.111.136.234-.333.086-.642.2-.962.259a3.61,3.61,0,0,1-3.689-1.628c-.555-.888-1.086-1.777-1.628-2.677-.642-1.061-1.3-2.122-1.937-3.171-.037-.074-.086-.136-.123-.2-2.11.728-4.91,4.836-4.984,7.279.37.062.74.136,1.123.2a61.34,61.34,0,0,1,6.859,1.554,21.773,21.773,0,0,1,9.759,5.835A17.8,17.8,0,0,1,163.7,114.5q.481,1.925.851,3.886a2.655,2.655,0,0,1-2.1,3,1.211,1.211,0,0,1-1.2-.592.511.511,0,0,1-.037-.2,17.951,17.951,0,0,0-5.182-13.213,21.538,21.538,0,0,0-7.8-4.922,14.7,14.7,0,0,0-2.443-.592c-1.172-.222-2.356-.395-3.528-.58-.506-.074-1.012-.111-1.517-.173-.136-.012-.16.049-.136.16a15.683,15.683,0,0,0,1.036,3.06,1.854,1.854,0,0,0,1.579,1.024,17.535,17.535,0,0,1,3.109.6,14.458,14.458,0,0,1,6.119,3.59,16.573,16.573,0,0,1,3.6,4.984,11.856,11.856,0,0,1,.851,3.257c.173,1.246.345,2.48.506,3.726H142.788a.67.67,0,0,1-.025-.136,2.834,2.834,0,0,1,.987-2.208,3.389,3.389,0,0,1,2.27-.777h7.4a3.005,3.005,0,0,0,.333-.012v-.222a11.358,11.358,0,0,0-.938-3.158,11.8,11.8,0,0,0-3.491-4.182c-.308-.247-.432-.21-.654.111a22.642,22.642,0,0,1-5.28,5.564c-.592.432-1.209.839-1.838,1.221a25.34,25.34,0,0,1-7.957,3.134,27.529,27.529,0,0,1-3.59.58c-.358.025-.716.062-1.073.1h-1.628Z" transform="translate(-28.103 18.971)" fill="#1a6592"/>
  </g>
  <g id="Group_9" data-name="Group 9" transform="translate(0 167.561)">
    <text id="TASK_MANAGER" data-name="TASK MANAGER" transform="translate(0 29)" fill="#fff" font-size="30" font-family="Montserrat-Bold, Montserrat" font-weight="700"><tspan x="0" y="0">TASK MANAGER</tspan></text>
    <text id="PRISMATIC_TECHNOLOGIES" data-name="PRISMATIC TECHNOLOGIES" transform="translate(35.062 50.912)" fill="#fff" font-size="13" font-family="Montserrat-Regular, Montserrat"><tspan x="0" y="0">PRISMATIC TECHNOLOGIES</tspan></text>
    <path id="Path_101" data-name="Path 101" d="M31.509,174.8H3.257a.617.617,0,0,1,0-1.234H31.509a.617.617,0,1,1,0,1.234Z" transform="translate(0.617 -126.998)" fill="#fff"/>
    <path id="Path_102" data-name="Path 102" d="M213,174.8H184.747a.617.617,0,1,1,0-1.234H213a.617.617,0,1,1,0,1.234Z" transform="translate(43.032 -126.998)" fill="#fff"/>
  </g>
</svg>
